<svg id="_x31_px" height="512" viewBox="0 0 24 24" width="512" xmlns="http://www.w3.org/2000/svg"><path d="m12 23c-.096 0-.191-.027-.275-.082-3.625-2.382-6.962-2.55-10.205-.509-.307.193-.681.203-1 .026-.321-.177-.52-.513-.52-.878v-15.53c0-.504.245-.971.654-1.249.889-.601 1.795-1.05 2.694-1.335.266-.083.546.063.629.326s-.062.544-.326.627c-.808.257-1.627.664-2.436 1.211-.132.09-.215.251-.215.42v15.53c3.462-2.183 7.165-2.066 11 .348 3.835-2.416 7.538-2.529 11.013-.343l-.013-15.535c0-.169-.083-.331-.215-.42-.809-.547-1.628-.954-2.437-1.21-.263-.083-.409-.364-.325-.628.083-.263.365-.408.628-.325.899.285 1.806.734 2.694 1.335.41.277.655.744.655 1.248v15.53c0 .365-.199.701-.52.878-.319.176-.693.167-1-.027-3.24-2.041-6.58-1.875-10.205.51-.084.055-.179.082-.275.082z"/><path d="m12 23c-.188 0-.36-.105-.445-.272-1.987-3.888-4.306-5.264-7.984-4.732-.144.021-.29-.023-.398-.117-.11-.096-.173-.234-.173-.379v-15c0-.827.673-1.5 1.5-1.5h3.5c1.739 0 3.251.992 4 2.439.749-1.447 2.261-2.439 4-2.439h3.5c.827 0 1.5.673 1.5 1.5v15c0 .145-.063.283-.172.378-.109.094-.257.138-.398.117-3.685-.527-5.997.845-7.984 4.732-.086.168-.258.273-.446.273zm-6.985-6.114c3.008 0 5.178 1.429 6.985 4.565 2.004-3.479 4.462-4.857 8-4.515v-14.436c0-.276-.224-.5-.5-.5h-3.5c-1.93 0-3.5 1.57-3.5 3.5 0 .276-.224.5-.5.5s-.5-.224-.5-.5c0-1.93-1.57-3.5-3.5-3.5h-3.5c-.276 0-.5.224-.5.5v14.437c.349-.034.687-.051 1.015-.051z"/><path d="m12 22.75c-.276 0-.5-.224-.5-.5v-16.75c0-.276.224-.5.5-.5s.5.224.5.5v16.75c0 .276-.224.5-.5.5z"/></svg>