<?xml version="1.0" encoding="iso-8859-1"?>
<!-- Generator: Adobe Illustrator 19.0.0, SVG Export Plug-In . SVG Version: 6.00 Build 0)  -->
<svg  version="1.1" id="Layer_1" xmlns="http://www.w3.org/2000/svg" xmlns:xlink="http://www.w3.org/1999/xlink" x="0px" y="0px"
	 viewBox="0 0 512 512" style="enable-background:new 0 0 512 512;" xml:space="preserve">
<g>
	<g>
		<g>
			<path d="M443.575,151.339c-2.795-2.005-6.4-2.581-9.621-1.451l-49.963,16.661v-27.883c0-5.888-4.779-10.667-10.667-10.667
				h-11.904c13.867-13.568,22.571-32.427,22.571-53.333C383.991,33.493,350.498,0,309.325,0c-30.507,0-56.725,18.432-68.288,44.715
				c-11.755-14.165-29.269-23.381-49.045-23.381c-35.285,0-64,28.715-64,64c0,16.448,6.4,31.317,16.64,42.667h-5.973
				c-5.888,0-10.667,4.779-10.667,10.667v10.667h-32c-5.888,0-10.667,4.779-10.667,10.667v10.667H74.658
				c-5.888,0-10.667,4.779-10.667,10.667S68.77,192,74.658,192h10.667v10.667c0,5.888,4.779,10.667,10.667,10.667h32v32
				c0,5.888,4.779,10.667,10.667,10.667h10.667v26.667l-81.067,60.8c-4.715,3.541-5.675,10.219-2.133,14.933
				c2.091,2.795,5.291,4.267,8.533,4.267c2.24,0,4.48-0.704,6.4-2.133l85.333-64c2.688-2.005,4.267-5.184,4.267-8.533v-32h42.667v32
				c0,5.888,4.779,10.667,10.667,10.667h4.075l-98.944,197.888c-2.624,5.269-0.491,11.669,4.779,14.315
				c1.536,0.768,3.157,1.131,4.757,1.131c3.904,0,7.659-2.155,9.557-5.909l86.443-172.885v168.128
				c0,5.888,4.779,10.667,10.667,10.667s10.667-4.779,10.667-10.667V333.184l86.443,172.928c1.877,3.733,5.632,5.888,9.557,5.888
				c1.621,0,3.243-0.363,4.757-1.131c5.269-2.645,7.424-9.045,4.779-14.315l-98.944-197.888h4.075
				c5.888,0,10.667-4.779,10.667-10.667v-32h96c5.888,0,10.667-4.779,10.667-10.667v-27.883l49.963,16.661
				c1.109,0.384,2.24,0.555,3.371,0.555c2.219,0,4.395-0.683,6.251-2.005c2.795-2.005,4.437-5.227,4.437-8.661v-64
				C448.013,156.565,446.349,153.344,443.575,151.339z M127.991,192h-21.333v-21.333h21.333V192z M309.325,21.333
				c29.397,0,53.333,23.936,53.333,53.333S338.722,128,309.325,128s-53.333-23.936-53.333-53.333S279.927,21.333,309.325,21.333z
				 M247.522,116.523c2.837,4.16,6.101,7.979,9.707,11.477H239.33C242.487,124.501,245.197,120.64,247.522,116.523z M191.991,42.667
				c23.531,0,42.667,19.136,42.667,42.667c0,23.531-19.136,42.667-42.667,42.667s-42.667-19.136-42.667-42.667
				C149.325,61.803,168.461,42.667,191.991,42.667z M255.991,277.333h-21.333V256h21.333V277.333z M362.658,234.667H149.325v-85.333
				h213.333V234.667z M426.658,209.195l-42.667-14.208v-5.973l42.667-14.208V209.195z"/>
			<path d="M181.325,213.333c5.888,0,10.667-4.779,10.667-10.667S187.213,192,181.325,192c-5.909,0-10.667,4.779-10.667,10.667
				S175.415,213.333,181.325,213.333z"/>
		</g>
	</g>
</g>
<g>
</g>
<g>
</g>
<g>
</g>
<g>
</g>
<g>
</g>
<g>
</g>
<g>
</g>
<g>
</g>
<g>
</g>
<g>
</g>
<g>
</g>
<g>
</g>
<g>
</g>
<g>
</g>
<g>
</g>
</svg>
