<svg id="Layer_1" enable-background="new 0 0 128 128" height="512" viewBox="0 0 128 128" width="512" xmlns="http://www.w3.org/2000/svg"><g><path d="m41.5 50.4c-1.8-1.8-4.8-1.8-6.6 0l-1 1c-1.8 1.8-1.8 4.8 0 6.6l.1.1-22.4 50c-1.4 3.1 0 6.8 3.1 8.2 1.6.7 3.4.8 5.1 0 43-19.3 49.7-22.3 50-22.4l.1.1c1.8 1.8 4.8 1.8 6.6 0l1-1c1.8-1.8 1.8-4.8 0-6.6zm-23.1 62.8c-1.4.6-3 0-3.6-1.3-.3-.7-.3-1.5 0-2.2l9.8-21.8c3 3.6 8.7 12 3.4 21zm7.7-28.8 6.7-15c4.3 4.7 15 18.1 12.8 31.6l-12.9 5.8c3.5-10.6-3.9-19.6-6.6-22.4zm23.3 14.9c.5-7.1-1.8-14.9-6.7-22.8-2.4-3.8-5.1-7.3-8.2-10.6l2.3-5 30.5 30.5zm25.7-8.7-1 1c-.5.5-1.2.5-1.7 0l-36-36c-.5-.5-.5-1.2 0-1.7l1-1c.5-.5 1.2-.5 1.7 0l36.1 36.1c.4.4.4 1.2-.1 1.6z"/><path d="m87 43.4c4.7-4.7 12.4-5.9 15.9-2.4.7.7 1.8.7 2.5 0s.7-1.8 0-2.5c-4.1-4.1-4.1-9.4 0-13.4.7-.7.7-1.8 0-2.5s-1.8-.7-2.5 0c-4.1 4.1-9.3 4.1-13.4 0-.7-.7-1.8-.7-2.5 0s-.7 1.8 0 2.5c3.5 3.5 2.3 11.2-2.4 15.9-.7.7-.7 1.8 0 2.5.6.6 1.8.6 2.4-.1zm5.3-14.9c2.2.8 4.7.9 6.9.3-.6 2.3-.5 4.7.3 7-2.8-.4-5.6 0-8.2 1 1-2.7 1.4-5.5 1-8.3z"/><path d="m61.5 60.2c-1.3 1.7 1 3.8 2.6 2.4 20.8-18.7 17.8-35.9 17.7-36.6-.2-.9-1-1.5-1.9-1.4l-8.9 1c-.9.1-1.6.9-1.5 1.8 1 20.4-8 32.6-8 32.8zm11.6-31.3 5.4-.7c.1 3.6-.6 12.7-8.9 23.4 2.5-7.3 3.7-15 3.5-22.7z"/><path d="m56.6 57.4c0 1.8 2.5 2.4 3.3.7.5-1 12-25.4-.7-46.2-.5-.9-1.7-1.1-2.6-.5l-9 6.9c-.8.6-.9 1.8-.3 2.5.2.2 8.7 10.4 9.3 36.6zm.6-42c6.3 11.8 4.6 24.9 2.4 33.1-1.6-16.4-6.3-25.2-8.4-28.4z"/><path d="m37.5 36.9c3.7 3.5 6.2 8.1 7.2 13.2.1.4.2.7.5.9l5.4 5.4c1 1 2.7.5 3-.9 1.4-9.6-2.4-19.2-10-25.2-.7-.6-1.7-.5-2.3.1l-3.9 3.9c-.7.8-.6 2 .1 2.6zm5.2-2.8c4.9 4.4 7.7 10.6 7.8 17.2l-2.4-2.3c-1.1-5-3.5-9.6-7-13.3z"/><path d="m33.8 32.4c3.1 0 5.5-2.5 5.5-5.5s-2.5-5.5-5.5-5.5c-3.1 0-5.5 2.5-5.5 5.5s2.5 5.5 5.5 5.5zm-1.4-7c.8-.8 2.1-.8 2.9 0s.8 2.1 0 2.9-2.1.8-2.9 0c-.8-.8-.8-2.1 0-2.9z"/><path d="m102 46.2c-.7-.1-18-3.1-36.6 17.8-1.4 1.6.7 3.8 2.4 2.6.1-.1 12.3-9 32.7-8 .9 0 1.7-.6 1.8-1.5l1.1-8.8c.2-1.1-.4-1.9-1.4-2.1zm-2.9 8.8c-7.7-.2-15.4.9-22.6 3.5 8.4-6.6 17-9.1 23.3-8.9z"/><path d="m116.1 68.8c-20.8-12.7-45.2-1.2-46.2-.7-1.7.8-1.1 3.3.7 3.3 26.2.5 36.4 9.1 36.5 9.2.8.7 1.9.6 2.5-.2l6.9-9c.7-.9.5-2.1-.4-2.6zm-8.2 8.1c-3.3-2.2-12-6.9-28.5-8.4 8.2-2.2 21.3-4 33.1 2.4z"/><path d="m97.6 84.3c-6-7.6-15.6-11.4-25.2-10-1.4.3-1.9 2-.9 3l5.4 5.4c.3.3.6.4.9.5 5 1 9.6 3.5 13.2 7.2.7.8 1.8.8 2.6.1l3.9-3.9c.6-.6.7-1.6.1-2.3zm-5.2 2.5c-3.7-3.5-8.3-5.9-13.3-6.9l-2.3-2.3c6.6.1 12.8 2.9 17.2 7.8z"/><path d="m97.2 90.2c-2.2 2.2-2.2 5.7 0 7.8 2.2 2.2 5.7 2.2 7.8 0 2.2-2.2 2.2-5.7 0-7.8-2.1-2.1-5.6-2.1-7.8 0zm5.4 5.4c-.8.8-2.1.8-2.9 0s-.8-2.1 0-2.9 2.1-.8 2.9 0 .8 2.1 0 2.9z"/></g></svg>