<svg height="512" viewBox="0 0 128 128" width="512" xmlns="http://www.w3.org/2000/svg"><path d="m115.2 12.393h-102.4a1.75 1.75 0 0 0 -1.75 1.75v89.175.1 10.426a1.75 1.75 0 0 0 1.75 1.75h102.4a1.75 1.75 0 0 0 1.75-1.75v-10.426c0-.051 0-.087 0-.1v-89.175a1.75 1.75 0 0 0 -1.75-1.75zm-25.683 83.952 11.149-20.762a31.154 31.154 0 0 0 4.45.59c-1.01 4.882-3.6 17.284-4.943 22.742-1.073.022-7.265 1.622-10.656-2.57zm-61.69 2.57c-1.345-5.459-3.933-17.86-4.943-22.742a31.154 31.154 0 0 0 4.45-.59l11.148 20.76c-3.572 4.437-9.67 2.491-10.655 2.572zm-2.861-26.47c13.962-17.055 10.767-39.2 9.272-46.259h18.519c-.388 8.22-3.473 42.684-27.791 46.259zm5.678-46.259c1.275 5.78 5.366 29.972-10.644 46.56h-5.45v-46.56zm-16.094 77.093v-27.033h4.774c.973 4.712 4.1 19.765 5.414 24.724.239.905-2.277 3.743-6 3.743-3.132 0-4.107-.962-4.187-1.385v-.01c.003-.013-.001-.026-.001-.039zm16.25-28.646c22.2-7.668 25.088-40.469 25.459-48.447h15.482c.371 7.978 3.259 40.779 25.459 48.447l-5.864 10.925h-54.672zm77.2-1.887c-15.98-16.559-11.911-40.775-10.643-46.56h16.093v46.56zm-4.97-.3c-24.318-3.575-27.4-38.039-27.792-46.259h18.52c-1.491 7.056-4.686 29.203 9.276 46.258zm5.642 3.8h4.774v27.033.039.012c-.532 1.566-6.877 2.5-9.671-1.13-1.007-1.312-.746 1.4 4.901-25.954zm-94.122-60.353h98.9v6.793c-51.974-.006-59.036 0-98.9 0zm0 96.2v-4.541c5.627 2.123 12.085-.9 13.454-5.095a33.019 33.019 0 0 0 3.633.318c5.313 0 9.456-3.144 10.486-5.714a1.753 1.753 0 0 0 -.081-1.482l-3.5-6.522h50.915l-3.5 6.522a1.753 1.753 0 0 0 -.081 1.482 9.106 9.106 0 0 0 4.052 4.066c3.884 2.2 7.209 1.622 10.067 1.33 1.38 4.229 7.883 7.2 13.454 5.095v4.541z"/></svg>