<svg height="512" viewBox="0 0 128 128" width="512" xmlns="http://www.w3.org/2000/svg"><g><path d="m59.957 87.746a36.686 36.686 0 0 1 -16.957 3.924 36.686 36.686 0 0 1 -16.957-3.924 1.749 1.749 0 0 0 -2.5 2.027 20.252 20.252 0 0 0 38.922 0 1.749 1.749 0 0 0 -2.5-2.027zm-16.957 13.174a16.842 16.842 0 0 1 -14.4-8.209 41.644 41.644 0 0 0 14.4 2.459 41.644 41.644 0 0 0 14.405-2.459 16.842 16.842 0 0 1 -14.405 8.209z"/><path d="m51.227 65.834a1.754 1.754 0 0 0 2.009-1.444 3.892 3.892 0 1 1 7.682 1.256 1.751 1.751 0 0 0 1.445 2.01 1.722 1.722 0 0 0 .285.024 1.752 1.752 0 0 0 1.725-1.468 7.392 7.392 0 0 0 -14.591-2.387 1.749 1.749 0 0 0 1.445 2.009z"/><path d="m23.352 67.68a1.722 1.722 0 0 0 .285-.024 1.751 1.751 0 0 0 1.445-2.01 3.892 3.892 0 0 1 7.682-1.256 1.75 1.75 0 0 0 3.454-.565 7.392 7.392 0 0 0 -14.591 2.387 1.752 1.752 0 0 0 1.725 1.468z"/><path d="m55.254 72.25c-6.065 0-8.927 3.325-8.773 8.018a3.841 3.841 0 0 0 1.519 2.94 3.9 3.9 0 0 0 2.363.8c1.178 0 6.932-1.95 13.175-.236a1.75 1.75 0 0 0 2.172-2.063c-.717-3.273-3.83-9.459-10.456-9.459zm-4.782 8.244a.387.387 0 0 1 -.492-.342c-.11-3.321 1.949-4.4 5.274-4.4a6.8 6.8 0 0 1 6 4.016 31.047 31.047 0 0 0 -10.782.726z"/><path d="m35.634 84.007a3.9 3.9 0 0 0 2.363-.8 3.841 3.841 0 0 0 1.522-2.94 7.539 7.539 0 0 0 -1.937-5.651c-1.519-1.571-3.82-2.367-6.836-2.367-6.626 0-9.739 6.186-10.459 9.458a1.75 1.75 0 0 0 2.172 2.063c6.248-1.714 12.041.237 13.175.237zm-4.888-8.257c2.032 0 3.485.438 4.32 1.3a4.1 4.1 0 0 1 .954 3.1.387.387 0 0 1 -.492.342 32.626 32.626 0 0 0 -7.543-.92 26.5 26.5 0 0 0 -3.233.192 6.8 6.8 0 0 1 5.994-4.014z"/><path d="m89.663 63.494c-6.033 0-11.38 4.925-13 11.979a1.75 1.75 0 0 0 2.675 1.849 19.354 19.354 0 0 1 20.656 0 1.75 1.75 0 0 0 2.675-1.849c-1.627-7.054-6.969-11.979-13.006-11.979zm0 7.342a22.943 22.943 0 0 0 -8.038 1.416c1.857-3.224 4.828-5.258 8.038-5.258s6.18 2.034 8.037 5.258a22.937 22.937 0 0 0 -8.037-1.416z"/><path d="m97.889 40.665a1.751 1.751 0 0 0 2.011-1.445 3.893 3.893 0 0 1 7.683 1.257 1.75 1.75 0 0 0 1.444 2.009 1.731 1.731 0 0 0 .285.024 1.752 1.752 0 0 0 1.725-1.468 7.392 7.392 0 1 0 -14.591-2.387 1.751 1.751 0 0 0 1.443 2.01z"/><path d="m74.392 32.553a7.4 7.4 0 0 0 -6.1 8.489 1.75 1.75 0 0 0 1.725 1.468 1.719 1.719 0 0 0 .284-.024 1.75 1.75 0 0 0 1.445-2.009 3.893 3.893 0 1 1 7.683-1.257 1.75 1.75 0 1 0 3.454-.565 7.4 7.4 0 0 0 -8.491-6.102z"/><path d="m101.916 47.08c-6.062 0-8.927 3.324-8.772 8.018a3.881 3.881 0 0 0 3.884 3.739c1.179 0 6.928-1.951 13.175-.236a1.751 1.751 0 0 0 2.172-2.064c-.72-3.271-3.833-9.457-10.459-9.457zm-5.274 7.9c-.11-3.322 1.949-4.4 5.274-4.4a6.8 6.8 0 0 1 6 4.016c-7.704-.948-11.231 1.587-11.274.386z"/><path d="m113.719 20.709c-2.164-.327-9.744 1.591-12.141 2.22l-5.853 1.016c-8.3 1.422-13.738-.518-17.8-1.016-2.4-.629-9.977-2.543-12.139-2.22-6.212.923-9.363 5.385-8.643 12.245l1.185 11.256c-2.271.417-12.548 5.523-26.345 1.315-4.043-1.034-7.483-2.968-12.283-2.262-6.211.929-9.361 5.394-8.641 12.25l3.96 37.611a13.657 13.657 0 0 0 5.981 9.824l10.739 7.294a20.162 20.162 0 0 0 22.527 0l10.74-7.3a13.657 13.657 0 0 0 5.977-9.827l.96-9.115c4.717 3.178 11.7 7.034 17.81 7.034 9.742 0 21.607-9.746 22.75-10.705a13.646 13.646 0 0 0 5.9-9.772l3.96-37.61c.717-6.853-2.434-11.315-8.644-12.238zm-50.682 79.344-10.742 7.3a16.659 16.659 0 0 1 -18.591 0l-10.741-7.294a10.167 10.167 0 0 1 -4.463-7.3l-3.96-37.611c-.526-5.018 1.332-7.773 5.676-8.423 3.7-.548 6.211.935 10.745 2.148 18.43 5.621 27.783-3.2 34.82-2.148 4.347.65 6.2 3.405 5.679 8.422l-3.96 37.604a10.172 10.172 0 0 1 -4.463 7.302zm11.78-48.907a5.96 5.96 0 0 1 2.593-.566c2.031 0 3.485.439 4.32 1.3a4.1 4.1 0 0 1 .951 3.1c-.031.943-1.8-.507-7.662-.577a14.56 14.56 0 0 0 -.202-3.257zm44.063-18.559-3.96 37.606a10.155 10.155 0 0 1 -4.462 7.3 1.877 1.877 0 0 0 -.151.115c-.117.1-11.8 9.934-20.557 9.934-6.053 0-13.682-4.855-17.392-7.5l2.33-22.131a29.454 29.454 0 0 1 6.677.813 3.883 3.883 0 0 0 4.814-3.624 7.523 7.523 0 0 0 -1.932-5.65c-1.52-1.573-3.82-2.371-6.837-2.371a9.5 9.5 0 0 0 -3.761.774 9.659 9.659 0 0 0 -7.349-4.591 14.718 14.718 0 0 0 -4.541.075l-1.139-10.75c-.526-5.017 1.331-7.771 5.678-8.416 1.7-.23 10.827 2.172 10.953 2.193 3.992.482 10 2.581 19.068 1.03l5.93-1.03c.049-.008.1-.019.146-.031 4.371-1.15 9.752-2.3 10.808-2.162 4.346.645 6.203 3.399 5.677 8.416z"/></g></svg>