<svg height="512" viewBox="0 0 128 128" width="512" xmlns="http://www.w3.org/2000/svg"><g><path d="m31.026 51.779a1.75 1.75 0 0 0 -3.5 0v30.221a11.813 11.813 0 0 0 -8.674-.32c-4.775 1.511-8.961 5.8-7.532 10.32 1.159 3.66 6.152 5.985 12.1 4.1 4.611-1.459 8.74-5.523 7.609-9.993zm-8.666 40.985c-2.613.826-6.9.7-7.7-1.824s2.608-5.086 5.251-5.923c2.71-.856 6.919-.657 7.7 1.823.804 2.537-2.641 5.096-5.251 5.924z"/><path d="m116.972 77.915v-34.323a1.75 1.75 0 0 0 -2.116-1.711l-38.3 8.187a1.75 1.75 0 0 0 -1.384 1.711v30.221a11.813 11.813 0 0 0 -8.674-.32c-4.776 1.51-8.961 5.8-7.533 10.316 1.446 4.563 7.394 5.593 12.1 4.1 4.6-1.455 8.741-5.513 7.61-9.993v-22.53l34.8-7.183v17.425a11.83 11.83 0 0 0 -8.675-.322c-5.5 1.742-8.812 6.275-7.531 10.317.949 3 4.119 4.766 7.941 4.766a13.823 13.823 0 0 0 4.155-.663c5.357-1.697 8.622-6.038 7.607-9.998zm-46.972 14.849c-2.614.826-6.9.7-7.7-1.824s2.642-5.1 5.252-5.923c2.711-.857 6.918-.657 7.7 1.823.805 2.537-2.639 5.096-5.252 5.924zm8.666-39.57 34.8-7.438v7.06l-34.797 7.184zm29.637 31.383c-3.512 1.113-7.039.276-7.7-1.823-.653-2.064 1.8-4.832 5.251-5.925 2.71-.855 6.919-.657 7.7 1.823.656 2.064-1.798 4.831-5.248 5.925z"/><path d="m58.886 55.324v-20.824l14.376 7.057a1.751 1.751 0 0 0 2.521-1.572v-10.695a1.751 1.751 0 0 0 -.979-1.571l-16.9-8.294c-.012-.006-.025-.007-.037-.013a1.75 1.75 0 0 0 -1.989.368c-.926.952-.313 1.9-.495 11.912v19.545a11.847 11.847 0 0 0 -8.675-.34c-4.774 1.51-8.961 5.8-7.532 10.317 1.179 3.722 6.189 5.976 12.1 4.1 4.605-1.454 8.74-5.514 7.61-9.99zm13.4-18.146-13.4-6.578v-6.8l13.4 6.576zm-22.066 24.802c-3.453 1.088-7.052.241-7.7-1.823-.8-2.536 2.641-5.1 5.251-5.924s6.9-.7 7.7 1.824-2.608 5.086-5.251 5.923z"/></g></svg>