<?xml version="1.0" encoding="UTF-8"?>
<svg xmlns="http://www.w3.org/2000/svg" width="512" height="512" viewBox="0 0 128 128"><g><path d="M101,45.861H98.246a6.705,6.705,0,0,0,.663-3.685,5.742,5.742,0,0,0-3.575-4.464c1.4-2.317,2.191-5.63-.352-8.754A6.465,6.465,0,0,0,90.5,26.443a7.139,7.139,0,0,0-2.964.4,13.8,13.8,0,0,0-2.363-7.627A9.106,9.106,0,0,0,72.818,17.5a10.185,10.185,0,0,0-2.963,3.9,5.8,5.8,0,0,0-4.52-1.2,5.419,5.419,0,0,0-4.176,2.87,10.946,10.946,0,0,0-4-2.895,10.228,10.228,0,0,0-8.1.34A7.8,7.8,0,0,0,44.647,24.9a10.26,10.26,0,0,0-.411,5.354,6.2,6.2,0,0,0-5.054,2.173,6.569,6.569,0,0,0-1.716,5.442,5.9,5.9,0,0,0-4.7,1.7A5.825,5.825,0,0,0,31.3,45.861H27a1.75,1.75,0,0,0-1.75,1.75V59.174A1.75,1.75,0,0,0,27,60.924h3.225L40.282,112.5A1.751,1.751,0,0,0,42,113.917H86a1.751,1.751,0,0,0,1.718-1.415L97.775,60.924H101a1.75,1.75,0,0,0,1.75-1.75V47.611A1.75,1.75,0,0,0,101,45.861ZM35.237,42.05c1.594-1.593,4.228-.007,4.331.056a1.75,1.75,0,0,0,2.276-2.6c-.084-.1-2.043-2.5-.047-4.749a3.246,3.246,0,0,1,4.053-.5,1.752,1.752,0,0,0,2.5-2.21c-.015-.033-1.441-3.332-.438-5.877a4.382,4.382,0,0,1,2.528-2.431,6.884,6.884,0,0,1,5.385-.319c2.958,1.184,4.424,4.546,4.436,4.574a1.751,1.751,0,0,0,3.364-.712c0-.135-.026-3.316,2.165-3.6a2.879,2.879,0,0,1,3.034,2.145,1.751,1.751,0,0,0,3.412-.286c0-.035.485-3.548,2.733-5.269a5.624,5.624,0,0,1,7.41,1.064c2.271,2.988,1.582,8.255,1.575,8.305A1.753,1.753,0,0,0,86.828,31.2a5.344,5.344,0,0,1,3.384-1.271,2.988,2.988,0,0,1,2.056,1.235c2.309,2.837-.732,5.845-1.081,6.173a1.752,1.752,0,0,0,.937,3.017c.031,0,3.116.539,3.309,2.218a3.264,3.264,0,0,1-.8,2.466,2.278,2.278,0,0,1-1.7.82H35.191A2.763,2.763,0,0,1,35.237,42.05ZM33.791,60.924H49.767l1.911,16.86c-3.135,1.8-5.049,4.316-5.049,7.133,0,3.3,2.63,6.162,6.756,7.98l1.985,17.52H43.441Zm25.1,49.493L57.048,94.136a30.162,30.162,0,0,0,13.9,0l-1.844,16.281ZM64,91.448c-8.175,0-13.871-3.442-13.871-6.531s5.7-6.531,13.871-6.531,13.871,3.442,13.871,6.531S72.175,91.448,64,91.448Zm0-16.562a27.866,27.866,0,0,0-8.968,1.41L53.29,60.924H74.71L72.968,76.3A27.866,27.866,0,0,0,64,74.886Zm20.559,35.531H72.63L74.615,92.9c4.126-1.818,6.756-4.685,6.756-7.98,0-2.817-1.914-5.328-5.049-7.133l1.911-16.86H94.209ZM99.25,57.424H28.75V49.361h70.5Z"/><path d="M60.5,33.375a6.808,6.808,0,0,0-5.423,2.179,7.779,7.779,0,0,0-1.558,5.823,1.75,1.75,0,0,0,3.464-.493,4.334,4.334,0,0,1,.752-3.052,3.523,3.523,0,0,1,2.765-.957,1.75,1.75,0,0,0,0-3.5Z"/><path d="M76.777,33.792a5.088,5.088,0,0,0-4.293-5.2c-3.438-.6-5.672,1.947-5.672,5.287a1.75,1.75,0,0,0,3.5,0,2.779,2.779,0,0,1,.594-1.708c.072-.061.3-.249.984-.13,1.619.279,1.581,2.125,1.173,3.717A1.75,1.75,0,0,0,75.6,37.721a3.514,3.514,0,0,1,2.207-.385,1.208,1.208,0,0,1,.722.761c.68,1.5-.475,2.158-2.073,2.353a1.75,1.75,0,0,0,.424,3.475c4.646-.568,6.29-4.066,4.837-7.272A4.689,4.689,0,0,0,76.777,33.792Z"/></g></svg>
