<svg height="512" viewBox="0 0 128 128" width="512" xmlns="http://www.w3.org/2000/svg"><g><path d="m54.116 86.662a1.75 1.75 0 0 0 1.742 1.6c.05 0 .1 0 .151-.006a1.751 1.751 0 0 0 1.591-1.893c-.141-1.634-.3-3.5-.51-5.413a1.75 1.75 0 1 0 -3.48.381c.21 1.883.368 3.722.506 5.331z"/><path d="m78.6 98.777a1.75 1.75 0 0 0 -2.652-2.277c-.045.051-4.565 5.181-13.55 8.116a1.75 1.75 0 0 0 .543 3.414 1.723 1.723 0 0 0 .544-.087c9.974-3.263 14.915-8.927 15.115-9.166z"/><path d="m82.143 102.342a1.75 1.75 0 0 0 -3.2-1.408 27.415 27.415 0 0 1 -3.278 5.347 1.75 1.75 0 1 0 2.731 2.188 30.693 30.693 0 0 0 3.747-6.127z"/><path d="m86.75 113.75h-2.45c2.108-4.882 5.691-15.017 3.921-24.268-.62-3.251-2.37-6.739-4.064-10.111s-3.439-6.855-3.645-9.453a33.358 33.358 0 0 0 4.754-2.105 7.375 7.375 0 0 0 3.816-6.466l-.01-4.717a7.39 7.39 0 0 0 -6.026-7.26l-12.3-2.316-.327-5.705c.126-.129.258-.25.379-.386a11.793 11.793 0 0 0 2.986-8.6l-.674-11.619c-.008-2.119-.415-9.022-5.145-13.158-2.66-2.326-6.072-3.226-10.138-2.68-8.115 1.094-10.66 4.807-12.906 8.084a19.919 19.919 0 0 1 -2.655 3.34c-4.434 4.2-4.183 11.181-1.376 15.5a8.849 8.849 0 0 0 7.537 4.27 9.754 9.754 0 0 0 1.945-.2 11.792 11.792 0 0 0 3.633 6.03 11.95 11.95 0 0 0 .958.763l.3 5.121-8.907 2.363a13.732 13.732 0 0 0 -10.086 15.323l.76 5.063a7.342 7.342 0 0 0 3.457 5.188 7.425 7.425 0 0 0 6.272.674l.083-.029c.643 3.254 1.007 7.454 1.285 10.667l.13 1.482c.442 4.984-.864 10.043-2.128 14.936a46.046 46.046 0 0 0 -1.875 10.269h-3a7.759 7.759 0 0 0 -7.75 7.75 1.751 1.751 0 0 0 1.75 1.75h57.5a1.75 1.75 0 0 0 1.75-1.75 7.759 7.759 0 0 0 -7.754-7.75zm-42.926-83.831c-1.981-3.047-2.22-8.139.849-11.048a22.931 22.931 0 0 0 3.135-3.9c2.1-3.063 3.912-5.709 10.485-6.593a8.911 8.911 0 0 1 7.368 1.847c2.726 2.383 3.8 6.549 3.924 9.9-1.118 1.053-4.007 3.177-7.069.562a1.754 1.754 0 0 0 -2.632.422c-.021.035-2.224 3.559-5.965 4.052a4.746 4.746 0 0 0 -4.089 4.98l.134 2.264a5.377 5.377 0 0 1 -6.14-2.486zm9.713 3.615-.213-3.6a1.236 1.236 0 0 1 1.051-1.3 12.074 12.074 0 0 0 7.379-4.211 7.9 7.9 0 0 0 8.052-.154l.477 8.306a8.387 8.387 0 1 1 -16.746.963zm-11.237 39.226a3.856 3.856 0 0 1 -1.813-2.72l-.759-5.057a10.237 10.237 0 0 1 7.518-11.421l10.29-2.73a1.752 1.752 0 0 0 1.3-1.793l-.265-4.575a11.849 11.849 0 0 0 3.333.481q.347 0 .7-.02a11.869 11.869 0 0 0 4.446-1.139l.277 4.834a1.75 1.75 0 0 0 1.423 1.62l13.65 2.57a3.889 3.889 0 0 1 3.173 3.823l.01 4.717a3.875 3.875 0 0 1 -2.011 3.4 32.61 32.61 0 0 1 -5.308 2.25c-.012 0-.024 0-.035.008l-.133.045a55.463 55.463 0 0 1 -5.324 1.56c-.032.008-3.115.757-4.693-1.084a1.75 1.75 0 1 0 -2.658 2.271 7.527 7.527 0 0 0 5.88 2.463 9.973 9.973 0 0 0 2.324-.263c1.5-.369 2.55-.664 3.5-.958.472 3.049 2.147 6.4 3.9 9.894.494.985.99 1.979 1.46 2.967a51.069 51.069 0 0 1 -31.371 13.588 33.9 33.9 0 0 0 .629-9.257l-.129-1.473a102.494 102.494 0 0 0 -1.46-11.624 26.511 26.511 0 0 0 2.41-1.137 1.75 1.75 0 0 0 -1.681-3.069 28.151 28.151 0 0 1 -3.406 1.516l-.012.006c-.608.232-1.226.454-1.84.665a3.933 3.933 0 0 1 -3.325-.358zm7.215 31.6c.278-1.078.562-2.191.835-3.325 4.679-.056 19.419-1.306 33.593-13.732a17.992 17.992 0 0 1 .835 2.84c1.791 9.358-2.6 19.944-4.32 23.611h-32.706a44.221 44.221 0 0 1 1.766-9.398zm-12.138 15.39a4.256 4.256 0 0 1 3.873-2.5h45.5a4.257 4.257 0 0 1 3.873 2.5z"/></g></svg>